<?xml version="1.0" encoding="utf-8"?><!-- Uploaded to: SVG Repo, www.svgrepo.com, Generator: SVG Repo Mixer Tools -->
<svg fill="#000000" width="800px" height="800px" viewBox="0 0 24 24" id="hamburger" data-name="Flat Line" xmlns="http://www.w3.org/2000/svg" class="icon flat-line"><path id="secondary" d="M9,19h6a4,4,0,0,0,4-4V13H5v2A4,4,0,0,0,9,19ZM5,9H19a4,4,0,0,0-4-4H9A4,4,0,0,0,5,9Z" style="fill: rgb(44, 169, 188); stroke-width: 2;"></path><path id="primary" d="M9,19h6a4,4,0,0,0,4-4V13H5v2A4,4,0,0,0,9,19ZM5,9H19a4,4,0,0,0-4-4H9A4,4,0,0,0,5,9ZM5,9H19a2,2,0,0,1,2,2h0a2,2,0,0,1-2,2H5a2,2,0,0,1-2-2H3A2,2,0,0,1,5,9Z" style="fill: none; stroke: rgb(0, 0, 0); stroke-linecap: round; stroke-linejoin: round; stroke-width: 2;"></path></svg>